<?xml version="1.0" encoding="UTF-8" standalone="no"?>
<svg
   xmlns:dc="http://purl.org/dc/elements/1.1/"
   xmlns:cc="http://creativecommons.org/ns#"
   xmlns:rdf="http://www.w3.org/1999/02/22-rdf-syntax-ns#"
   xmlns:svg="http://www.w3.org/2000/svg"
   xmlns="http://www.w3.org/2000/svg"
   xmlns:sodipodi="http://sodipodi.sourceforge.net/DTD/sodipodi-0.dtd"
   xmlns:inkscape="http://www.inkscape.org/namespaces/inkscape"
   sodipodi:docname="logo.svg"
   inkscape:version="1.0 (4035a4fb49, 2020-05-01)"
   id="svg270"
   version="1.1"
   viewBox="0 0 210 297"
   height="297mm"
   width="210mm">
  <defs
     id="defs264" />
  <sodipodi:namedview
     inkscape:window-maximized="1"
     inkscape:window-y="-8"
     inkscape:window-x="-8"
     inkscape:window-height="1018"
     inkscape:window-width="1920"
     showgrid="false"
     inkscape:document-rotation="0"
     inkscape:current-layer="layer1"
     inkscape:document-units="mm"
     inkscape:cy="470.43068"
     inkscape:cx="170.61014"
     inkscape:zoom="0.35417219"
     inkscape:pageshadow="2"
     inkscape:pageopacity="0.0"
     borderopacity="1.0"
     bordercolor="#666666"
     pagecolor="#ffffff"
     id="base" />
  <metadata
     id="metadata267">
    <rdf:RDF>
      <cc:Work
         rdf:about="">
        <dc:format>image/svg+xml</dc:format>
        <dc:type
           rdf:resource="http://purl.org/dc/dcmitype/StillImage" />
        <dc:title></dc:title>
      </cc:Work>
    </rdf:RDF>
  </metadata>
  <g
     id="layer1"
     inkscape:groupmode="layer"
     inkscape:label="logo">
    <g
       style="clip-rule:evenodd;fill-rule:evenodd;image-rendering:optimizeQuality;shape-rendering:geometricPrecision;text-rendering:geometricPrecision"
       id="g233"
       transform="matrix(0.01648473,0,0,0.01648473,-380.06047,-15.571388)">
      <path
         style="clip-rule:evenodd;display:inline;fill:#000000;fill-rule:evenodd;stroke-width:1;image-rendering:optimizeQuality;shape-rendering:geometricPrecision;text-rendering:geometricPrecision"
         class="fil1"
         d="m 30005.426,18631.683 v -2435.261 h -428.15 c -132.3,0 -295.97,-107.78 -306.23,-255.43 -16.81,-242.11 133.87,-374.45 295.98,-374.45 h 1501.59 c 193.79,0 254.06,192.6 234.46,366.51 -16.25,144.18 -113.23,255.43 -234.46,255.43 h -437.01 v 2443.201 c 0,71.879 -22.59,132.47 -67.74,181.649 -45.14,49.18 -155.77,113.45 -221.77,113.45 -65.99,0 -223.78,-64.27 -268.94,-113.45 -45.16,-49.19 -67.73,-109.749 -67.73,-181.649 z"
         id="path57-2" />
      <path
         style="clip-rule:evenodd;display:inline;fill:#000000;fill-rule:evenodd;stroke-width:1;image-rendering:optimizeQuality;shape-rendering:geometricPrecision;text-rendering:geometricPrecision"
         class="fil1"
         d="m 26040.635,18650.722 v -2819.82 c 0,-74.42 25.21,-137.08 75.62,-187.99 50.4,-50.92 112.44,-76.37 186.11,-76.37 h 1087 c 147.751,0 261.72,115.2 261.72,264.36 0,177.83 -55.199,359.58 -261.72,359.58 h -730.92 v 785.97 h 697.941 c 73.679,0 135.72,25.46 186.13,76.37 50.39,50.9 75.599,113.57 75.599,187.98 0,74.42 -25.209,168.84 -75.599,219.73 -50.4,50.91 -112.48,76.38 -186.13,76.38 h -697.941 v 754.24 h 778.091 c 124.15,0 261.72,146.93 261.72,296.09 0,125.3 -115.801,311.971 -261.72,311.971 h -1134.171 c -73.66,0 -135.71,-25.45 -186.11,-76.371 -50.41,-50.91 -75.62,-97.709 -75.62,-172.12 z"
         id="path59-5" />
      <path
         style="clip-rule:evenodd;display:inline;fill:#000000;fill-rule:evenodd;stroke-width:1;image-rendering:optimizeQuality;shape-rendering:geometricPrecision;text-rendering:geometricPrecision"
         class="fil1"
         d="m 31220.556,18650.722 v -2819.82 c 0,-74.42 25.2,-137.08 75.61,-187.99 50.4,-50.92 112.45,-76.37 186.11,-76.37 h 1087 c 147.75,0 261.72,115.2 261.72,264.36 0,177.83 -55.2,359.58 -261.72,359.58 h -730.91 v 785.97 h 697.94 c 73.67,0 135.72,25.46 186.12,76.37 50.39,50.9 75.61,113.57 75.61,187.98 0,74.42 -25.21,168.84 -75.61,219.73 -50.4,50.91 -112.47,76.38 -186.12,76.38 h -697.94 v 754.24 h 778.08 c 124.15,0 261.72,146.93 261.72,296.09 0,125.3 -115.8,311.971 -261.72,311.971 h -1134.17 c -135.99,0 -261.72,-106.461 -261.72,-248.491 z"
         id="path61-5" />
      <path
         style="clip-rule:evenodd;display:inline;fill:#212220;fill-rule:evenodd;stroke-width:1;image-rendering:optimizeQuality;shape-rendering:geometricPrecision;text-rendering:geometricPrecision"
         class="fil2"
         d="m 24057.965,18658.712 v -2819.94 c 0,-72.16 26.33,-132.92 78.99,-182.3 52.65,-49.38 117.46,-74.06 194.41,-74.06 h 729.07 c 279.46,0 516.4,91.15 710.83,273.45 194.41,182.3 291.61,404.48 291.61,666.53 0,136.72 -11.61,389.01 -66.29,502.95 -54.68,113.94 -317.54,478.33 -709.94,545.67 233.76,272.61 513.57,586.15 703.73,808 83.26,97.14 87.23,204.62 72.5,279.7 -13.92,70.961 -26.32,132.941 -78.97,182.31 -52.66,49.37 -117.47,74.05 -194.43,74.05 -76.94,0 -141.75,-24.68 -194.41,-74.05 -284.72,-267.02 -589.18,-665.29 -911.68,-966.02 v 783.71 c 0,72.14 -26.33,132.941 -78.98,182.31 -52.64,49.37 -196.08,74.05 -273.04,74.05 -76.95,0 -141.76,-24.68 -194.41,-74.05 -52.66,-49.369 -78.99,-110.15 -78.99,-182.31 z m 644.72,-2453.85 v 747.26 h 370.22 c 102.01,0 189.21,-36.52 261.62,-109.59 72.4,-73.07 108.6,-161.08 108.6,-264.04 0,-102.95 -36.2,-190.96 -108.6,-264.03 -72.41,-73.07 -159.61,-109.6 -261.62,-109.6 z"
         id="path63-2" />
      <path
         style="clip-rule:evenodd;display:inline;fill:#000000;fill-rule:evenodd;stroke-width:1;image-rendering:optimizeQuality;shape-rendering:geometricPrecision;text-rendering:geometricPrecision"
         class="fil1"
         d="m 32780.736,18658.712 v -2819.94 c 0,-72.16 26.33,-132.92 78.98,-182.3 52.66,-49.38 117.46,-74.06 194.42,-74.06 h 729.06 c 279.47,0 516.41,91.15 710.83,273.45 194.42,182.3 291.62,404.48 291.62,666.53 0,136.72 -11.61,389.01 -66.29,502.95 -54.68,113.94 -317.54,478.33 -709.94,545.67 230.49,284.34 525.18,596.36 703.73,808 82.5,97.8 87.23,204.62 72.5,279.7 -13.93,70.961 -26.33,132.941 -78.97,182.31 -52.66,49.37 -117.47,74.05 -194.43,74.05 -76.94,0 -141.76,-24.68 -194.41,-74.05 -284.73,-267.02 -589.18,-665.29 -911.68,-966.02 v 783.71 c 0,72.14 -26.33,132.941 -78.98,182.31 -52.64,49.37 -196.08,74.05 -273.04,74.05 -76.96,0 -141.76,-24.68 -194.42,-74.05 -52.65,-49.369 -78.98,-110.15 -78.98,-182.31 z m 644.72,-2453.85 v 747.26 h 370.22 c 102,0 189.21,-36.52 261.61,-109.59 72.41,-73.07 108.61,-161.08 108.61,-264.04 0,-102.95 -36.2,-190.96 -108.61,-264.03 -72.4,-73.07 -159.61,-109.6 -261.61,-109.6 z"
         id="path65-6" />
      <path
         style="clip-rule:evenodd;display:inline;fill:#000000;fill-rule:evenodd;stroke-width:1;image-rendering:optimizeQuality;shape-rendering:geometricPrecision;text-rendering:geometricPrecision"
         class="fil1"
         d="m 29086.476,16951.832 c 156.06,81.07 370.14,290.36 461.14,462.43 179.58,339.57 64.31,929.84 -271.09,1237.31 -214.31,196.47 -440.92,272.48 -726.45,277.441 -291.08,5.059 -823.24,-127.271 -920.36,-376.961 -56.76,-145.91 -95.45,-296.38 51.58,-411.7 118.54,-92.98 205.769,-73.26 377.53,10.6 924.52,451.37 1439.16,-547.12 193.09,-836.88 -153.64,-35.73 -389.84,-209.91 -483.44,-360.55 -207.73,-334.36 -204.42,-860.49 242.9,-1245.72 615.5,-530.06 1637.74,43.74 1407.49,487.83 -75.72,146.04 -140.17,161.24 -282.58,195.69 -186.2,45.05 -262.08,-318.13 -711.88,-166.83 -161.18,54.22 -193.75,335.93 -10.92,418.44 206.66,93.26 473.43,205.25 672.99,308.9 z"
         id="path67-3" />
      <path
         style="clip-rule:evenodd;display:inline;fill:#fefefe;fill-rule:evenodd;stroke-width:1;image-rendering:optimizeQuality;shape-rendering:geometricPrecision;text-rendering:geometricPrecision"
         class="fil3"
         d="m 33019.566,18254.512 c -0.87,-850.79 -1.749,-1701.58 -2.63,-2552.38 -0.05,-62.8 22.23,-116.86 49.14,-140.68 31.64,-30.99 110.16,-40.59 172.57,-40.59 197.08,0.01 394.16,0.01 591.23,0 226.64,0 414.21,42.83 576.45,196.15 179.58,169.73 254.12,457.57 239.11,678.08 -8.07,118.69 -22.16,228.09 -66.51,327.26 -44.34,99.17 -110.85,188.42 -199.54,267.75 -270.91,136.8 -401.74,165.05 -740.06,169.74 256.41,278.92 697.72,779.59 1034.05,1166.89 43.95,50.61 -57.34,227.16 -213.94,122.86 -28.02,-28.93 -1013.23,-1132.31 -1172.84,-1307.56 0.01,370.83 0.01,741.66 0,1112.48 0,148.1 -22.39,220.78 -129.26,220.45 -111.59,-0.338 -132.11,-74.61 -137.77,-220.45 z m 260.16,-2479.36 v 1123.12 h 552.97 c 152.37,0 310.29,-54.92 418.42,-164.73 108.13,-109.81 134.55,-242.09 134.55,-396.84 0,-154.74 -54.07,-287.02 -162.21,-396.83 -108.13,-109.81 -238.39,-164.72 -390.76,-164.72 z m -1868.94,2380.33 c 0.01,-808.2 0.01,-1616.41 0,-2424.63 0,-63.98 22.55,-97.39 67.65,-141.16 45.11,-43.78 100.62,-65.67 166.54,-65.67 338.27,0.01 469.18,0.01 807.45,0 97.31,0 233.54,0 233.54,122.67 0,141.79 -100.41,129.64 -226.63,129.64 -260.21,0.01 -478.94,0.01 -739.16,0 0.01,252.57 0.01,839.99 0,1092.55 208.17,0.01 485.9,4.29 700.54,0 134.71,-0.399 235.56,17.96 235.33,116.7 5.59,154.39 -109.1,142.58 -235.33,142.58 -208.17,0 -492.37,0.01 -700.54,0 0.01,252.57 0.01,812.08 0,1064.65 260.22,0 527.34,0 787.54,0 126.26,0 206.69,8.9 213.45,108.71 0,133.99 -87.23,157.54 -137.41,164.53 -338.27,0 -600.51,0 -938.78,0 -65.92,0 -134.78,-1.701 -179.88,-45.48 -45.1,-43.769 -54.31,-201.1 -54.31,-265.09 z m -1192.02,94.96 v -2466.45 h -523.91 c -37.85,0 -155.91,-13.98 -158.73,-124.16 -3.01,-117.79 117.94,-135.81 158.73,-135.81 h 1322.67 c 78.5,0 173.04,39.05 175.59,144.59 2.429,100.38 -109.89,115.38 -175.59,115.38 h -507.56 v 2466.45 c 0,159.89 -40.65,227.2 -144.04,227.2 -109.6,0 -147.16,-70.42 -147.16,-227.2 z m -1364.14,-1437.25 c 190.89,89.85 313.11,123.26 519.33,367.84 235.23,401.29 21.92,896.37 -170.04,1079.26 -166.54,158.66 -396.78,238 -636.17,238 -239.4,0 -462.821,-58.69 -629.35,-189.82 -120.41,-113.18 -151.751,-181.56 -79.84,-256.93 69.18,-54.86 149.06,0.32 350.07,148.59 233.61,85.95 1003.72,152.41 994.99,-699.8 0,-59.49 -19.95,-118.99 -59.85,-178.5 -39.9,-59.5 -90.21,-107.43 -152.66,-143.79 -192.83,-95.58 -392.5,-163.63 -585.35,-259.23 -176.34,-73.57 -758.181,-351 -453.721,-1040.55 93.211,-211.11 342.091,-356.66 615.711,-375.69 259.18,-18.02 475.42,41.6 656.63,182.94 71.04,55.41 133.84,90.46 79.28,229.05 -27.29,54.24 -161.43,33.62 -291.03,-48.18 -470.62,-368.65 -1090.46,151.83 -768.53,645.23 87.65,116.23 548.08,271.83 610.53,301.58 z m -2628.761,1342.29 c 0.01,-808.2 0.01,-1616.41 0,-2424.63 0,-63.98 22.56,-97.39 67.65,-141.16 45.11,-43.78 100.62,-65.67 166.54,-65.67 338.28,0.01 469.19,0.01 807.45,0 97.321,0 233.541,0 233.541,122.67 0,141.79 -100.41,129.64 -226.63,129.64 -260.21,0.01 -478.94,0.01 -739.151,0 0,252.57 0,839.99 0,1092.55 208.17,0.01 485.89,4.29 700.53,0 134.72,-0.399 235.561,17.96 235.331,116.7 5.589,154.39 -109.101,142.58 -235.331,142.58 -208.159,0 -492.36,0.01 -700.53,0 0,252.57 0,812.08 0,1064.65 260.211,0 527.33,0 787.541,0 126.249,0 206.68,8.9 213.449,108.71 0,133.99 -87.24,157.54 -137.419,164.53 -338.261,0 -600.501,0 -938.781,0 -65.92,0 -121.43,-21.9 -166.54,-65.68 -45.09,-43.77 -67.65,-180.9 -67.65,-244.89 z m -1925.54,99.03 c -0.87,-850.79 -1.75,-1701.58 -2.62,-2552.38 -0.06,-62.8 22.22,-116.86 49.13,-140.68 31.64,-30.99 110.16,-40.59 172.57,-40.59 197.09,0.01 394.16,0.01 591.23,0 226.64,0 414.21,42.83 576.45,196.15 179.58,169.73 254.12,457.57 239.11,678.08 -8.07,118.69 -22.16,228.09 -66.51,327.26 -44.34,99.17 -110.85,188.42 -199.54,267.75 -270.91,136.8 -401.74,165.05 -740.06,169.74 256.41,278.92 697.72,779.59 1034.05,1166.89 43.95,50.61 -57.34,227.16 -213.94,122.86 -28.02,-28.93 -1013.23,-1132.31 -1172.84,-1307.56 0.01,370.83 0.01,741.66 0,1112.48 0,148.1 -22.39,220.78 -129.26,220.45 -111.59,-0.338 -132.11,-74.61 -137.77,-220.45 z m 260.16,-2479.36 v 1123.12 h 552.97 c 152.37,0 310.29,-54.92 418.42,-164.73 108.13,-109.81 134.55,-242.09 134.55,-396.84 0,-154.74 -54.07,-287.02 -162.2,-396.83 -108.14,-109.81 -238.4,-164.72 -390.77,-164.72 z"
         id="path69-0" />
      <path
         d="m 24057.498,11083.535 v 4178.556 h 5364.169 v -6.098 h 5364.117 V 11083.69 a 2815.2172,2815.2172 0 0 1 -2682.058,1959.674 2815.2172,2815.2172 0 0 1 -2682.059,-1959.726 2815.2172,2815.2172 0 0 1 -2682.11,1959.726 2815.2172,2815.2172 0 0 1 -2682.059,-1959.829 z"
         style="clip-rule:evenodd;display:inline;opacity:1;fill:#e31e24;fill-opacity:1;fill-rule:evenodd;stroke-width:49.9999;stroke-linecap:square;stroke-linejoin:round;paint-order:stroke markers fill;image-rendering:optimizeQuality;shape-rendering:geometricPrecision;text-rendering:geometricPrecision"
         id="rect246-1" />
      <g
         id="g219">
        <path
           id="path313-7-4-6-7"
           style="clip-rule:evenodd;display:inline;opacity:1;fill:#e31e24;fill-opacity:1;fill-rule:evenodd;stroke-width:0.980122;stroke-linecap:square;stroke-linejoin:round;paint-order:stroke markers fill;image-rendering:optimizeQuality;shape-rendering:geometricPrecision;text-rendering:geometricPrecision"
           d="M 202.74023,0 A 104.76391,104.76391 0 0 0 97.97656,104.76562 104.76391,104.76391 0 0 0 133.98437,183.81054 104.7639,104.7639 0 0 0 104.76367,179.65039 104.7639,104.7639 0 0 0 1.4119365e-8,284.41601 104.7639,104.7639 0 0 0 104.76367,389.17968 104.7639,104.7639 0 0 0 202.74023,321.51172 104.7639,104.7639 0 0 0 300.71484,389.17968 104.7639,104.7639 0 0 0 405.48047,284.41601 104.7639,104.7639 0 0 0 300.71484,179.65039 104.7639,104.7639 0 0 0 271.49414,183.81054 104.76391,104.76391 0 0 0 307.5039,104.76562 104.76391,104.76391 0 0 0 202.74023,0 Z m -29.2207,205.37109 a 104.76391,104.76391 0 0 0 29.2207,4.1582 104.76391,104.76391 0 0 0 29.22071,-4.1582 104.7639,104.7639 0 0 0 -29.22071,41.94727 104.7639,104.7639 0 0 0 -29.2207,-41.94727 z"
           transform="matrix(26.458333,0,0,26.458333,24057.498,976.71014)" />
      </g>
      <path
         id="rect156-2"
         style="clip-rule:evenodd;display:inline;opacity:1;fill:#ffffff;fill-opacity:1;fill-rule:evenodd;stroke-width:46.1809;stroke-linecap:square;stroke-linejoin:round;paint-order:stroke markers fill;image-rendering:optimizeQuality;shape-rendering:geometricPrecision;text-rendering:geometricPrecision"
         d="m 27708.163,7976.8572 c -352.186,-1025.5922 735.031,-2594.5113 1378.248,-3568.1795 303.011,-458.6833 399.095,-875.177 399.095,-875.177 0,0 83.331,398.8992 397.472,877.3952 642.494,978.6403 1727.833,2552.6662 1379.87,3565.9613 -222.845,648.9441 -1091.201,1038.3423 -1777.342,1038.3423 -686.141,0 -1554.497,-389.3982 -1777.343,-1038.3423 z"
         sodipodi:nodetypes="sscssas" />
      <ellipse
         style="clip-rule:evenodd;display:inline;opacity:1;fill:#e31e24;fill-opacity:1;fill-rule:evenodd;stroke-width:60.883;stroke-linecap:square;stroke-linejoin:round;paint-order:stroke markers fill;image-rendering:optimizeQuality;shape-rendering:geometricPrecision;text-rendering:geometricPrecision"
         id="path163-6"
         cx="26627.848"
         cy="15612.167"
         rx="297.65546"
         ry="513.55194"
         transform="matrix(0.95293703,-0.3031683,0.32949226,0.94415828,0,0)" />
    </g>
  </g>
</svg>
